<?xml version="1.0" encoding="utf-8"?>
<!-- Generator: Adobe Illustrator 25.0.0, SVG Export Plug-In . SVG Version: 6.00 Build 0)  -->
<svg version="1.1" id="Layer_1" xmlns="http://www.w3.org/2000/svg" xmlns:xlink="http://www.w3.org/1999/xlink" x="0px" y="0px"
	 viewBox="0 0 140 52" style="enable-background:new 0 0 140 52;" xml:space="preserve">
<style type="text/css">
	.st0{fill:#E61D33;}
	.st1{fill:#FFFFFF;}
	.st2{fill:#B3B3B3;}
</style>
<g>
	<g>
		<path class="st0" d="M37.7,22.9c0,0-2.7-13.5-10.8-16.3C18.8,3.9,9.1,5.1,2.1,7.4c0,0,4.4,3.4,7,6.1c2.5,2.7,7.2,8.4,11.7,9.5
			C25,24,30.6,24,37.7,22.9z"/>
		<path class="st0" d="M65.2,39.3c0,0-0.9-10.8-6.9-13.7c-6.1-2.9-13.4-2.9-19-1.8c0.3,1.5,1.4,4.5,4.1,7.6c2.4,2.7,5.8,5,9.1,6.4
			C55.7,39.3,59.6,39.5,65.2,39.3z"/>
		<path class="st0" d="M37.9,24c0,0-14.8,1.5-20.8,5.3c-5.4,3.4-9.7,12.9-5.1,22.1c0,0,3.8-2.3,7.6-3.6c3.5-1.2,15-5.1,17.8-10.2
			C40.3,32.5,38.8,27,37.9,24z"/>
		<path class="st0" d="M51.3,5.6c0,0,2.1,7.1,1.2,9.5c-1,2.7-5,6.9-13.5,7.4c0,0-3.6-10-0.1-13.2C42.5,6.1,51.3,5.6,51.3,5.6z"/>
	</g>
	<g>
		<path class="st1" d="M72,10.9c0.7-0.2,1.4-0.4,2.1-0.5c0.6-0.1,1.2-0.3,1.7-0.4c0.5-0.1,0.9-0.2,1.2-0.2c0.3,0,0.5-0.1,0.6-0.1
			c0.4,0,0.7,0.2,0.7,0.7v14.2c0,0.3-0.2,0.5-0.5,0.6c-0.2,0-0.5,0.1-0.8,0.1c-0.3,0-0.5,0.1-0.8,0.1c-0.2,0-0.5,0-0.7,0
			c-0.2,0-0.4,0-0.5,0c-0.3,0-0.5-0.2-0.5-0.5V13.7c0-0.7-0.1-1.2-0.4-1.5c-0.2-0.3-0.6-0.4-1.1-0.4c-0.2,0-0.3,0-0.4,0
			c-0.1,0-0.3,0-0.5,0.1L72,10.9z"/>
		<path class="st1" d="M80.7,11.9c0.3-0.1,0.7-0.1,1-0.2c0.3-0.1,0.6-0.1,0.9-0.1c0.3,0,0.5-0.1,0.7-0.1c0.2,0,0.3,0,0.4,0
			c0.1,0,0.2,0,0.3,0.1c0.1,0.1,0.1,0.2,0.2,0.3l2.7,4.6l2.8-4.4c0,0,0,0,0,0c0,0,0,0,0,0c0.1-0.1,0.1-0.2,0.2-0.2
			c0.1,0,0.1-0.1,0.2-0.1c0.1,0,0.2-0.1,0.3-0.1c0.1,0,0.2,0,0.4,0c0.1,0,0.2,0,0.3,0c0.1,0,0.2,0,0.2,0c0.1,0,0.2,0.1,0.2,0.2
			c0,0.1,0,0.1-0.1,0.2l-4,5.7l4.2,7.2c0,0,0,0.1,0,0.1c0,0.1-0.1,0.2-0.2,0.2c-0.1,0-0.3,0-0.5,0.1c-0.2,0-0.4,0-0.5,0
			c-0.2,0-0.3,0-0.5,0c-0.1,0-0.3,0-0.3,0c-0.1,0-0.2-0.1-0.3-0.2l-3.4-5.7l-3.4,5.4c-0.1,0.1-0.1,0.2-0.2,0.2
			c-0.1,0.1-0.1,0.1-0.2,0.1c-0.1,0-0.2,0.1-0.4,0.1c-0.1,0-0.3,0-0.4,0c-0.1,0-0.2,0-0.3,0c-0.1,0-0.2,0-0.2,0
			c-0.1,0-0.2-0.1-0.2-0.2c0-0.1,0-0.1,0.1-0.2l4.5-6.7l-2.9-5c-0.2-0.3-0.4-0.6-0.6-0.7c-0.2-0.1-0.4-0.2-0.6-0.2
			c-0.1,0-0.2,0-0.2,0c-0.1,0-0.2,0-0.3,0L80.7,11.9z"/>
		<path class="st1" d="M96.3,10.3c-1.1,1.8-1.7,4-1.7,6.7c0,2.5,0.5,4.6,1.6,6.4c-2.1-1.4-3.1-3.6-3.1-6.6
			C93.1,13.8,94.1,11.6,96.3,10.3z M109.3,16.9c0,1.9-0.3,3.5-0.9,4.8c-0.6,1.3-1.4,2.3-2.4,2.9c-1,0.6-2.2,0.9-3.5,0.9
			c-2.1,0-3.8-0.8-5-2.3c-1.2-1.5-1.8-3.7-1.8-6.3c0-2.8,0.6-4.9,1.8-6.4c1.2-1.5,2.8-2.2,4.9-2.2c2.1,0,3.8,0.7,5,2.2
			C108.7,11.9,109.3,14.1,109.3,16.9z M107.9,16.9c0-4.9-1.8-7.4-5.4-7.4c-3.5,0-5.3,2.5-5.3,7.6c0,4.8,1.8,7.2,5.3,7.2
			C106.1,24.3,107.9,21.8,107.9,16.9z M108.8,23.6c1.1-1.5,1.7-3.8,1.7-6.9c0-2.7-0.6-4.8-1.7-6.3c2.1,1.3,3.2,3.4,3.2,6.5
			C112,19.9,110.9,22.1,108.8,23.6z"/>
		<path class="st1" d="M117.4,18.2c0.6,0,1.1-0.1,1.6-0.3c0.5-0.1,0.8-0.3,1.1-0.6c0.3-0.3,0.5-0.6,0.7-1c0.2-0.4,0.2-0.9,0.2-1.4
			c0-0.5-0.1-0.9-0.3-1.2c-0.2-0.3-0.4-0.6-0.7-0.8c-0.3-0.2-0.7-0.4-1.1-0.5c-0.4-0.1-0.9-0.2-1.3-0.2c-0.3,0-0.5,0-0.7,0.1
			c-0.2,0.1-0.2,0.2-0.2,0.4v12c0,0.2-0.1,0.3-0.3,0.3c-0.1,0-0.3,0-0.4,0.1c-0.2,0-0.3,0-0.5,0c-0.2,0-0.3,0-0.4,0
			c-0.1,0-0.2,0-0.3,0c-0.2,0-0.3-0.1-0.3-0.3V13.4c0-0.4-0.1-0.6-0.3-0.8c-0.2-0.1-0.4-0.2-0.7-0.2c-0.2,0-0.3,0-0.5,0l-0.1-0.6
			c0.8-0.1,1.6-0.2,2.4-0.3c0.8-0.1,1.7-0.1,2.5-0.1c0.4,0,0.8,0,1.2,0c0.4,0,0.8,0.1,1.2,0.2c0.4,0.1,0.8,0.2,1.1,0.4
			c0.4,0.2,0.7,0.3,0.9,0.6c0.3,0.2,0.5,0.5,0.6,0.9c0.2,0.3,0.2,0.8,0.2,1.2c0,0.5-0.1,0.9-0.2,1.3c-0.2,0.4-0.4,0.7-0.6,1
			c-0.3,0.3-0.6,0.5-0.9,0.8c-0.4,0.2-0.7,0.4-1.1,0.5v0.1c0.2,0,0.4,0.1,0.6,0.2c0.2,0.1,0.4,0.2,0.7,0.3c0.2,0.2,0.4,0.3,0.6,0.6
			c0.2,0.2,0.3,0.5,0.4,0.9l0.9,2.7c0.1,0.4,0.2,0.7,0.3,0.9c0.1,0.2,0.2,0.4,0.3,0.5c0.1,0.1,0.2,0.2,0.4,0.2
			c0.1,0,0.3,0.1,0.5,0.1l0,0.6c-0.1,0-0.3,0.1-0.5,0.1c-0.2,0-0.3,0-0.5,0.1c-0.2,0-0.3,0-0.5,0c-0.1,0-0.2,0-0.3,0
			c-0.2,0-0.5,0-0.7-0.1c-0.2-0.1-0.4-0.2-0.5-0.3c-0.2-0.1-0.3-0.3-0.4-0.6c-0.1-0.2-0.2-0.5-0.3-0.9l-0.8-2.8
			c-0.1-0.4-0.3-0.7-0.4-1c-0.2-0.2-0.4-0.4-0.6-0.6c-0.2-0.1-0.5-0.2-0.9-0.3c-0.3,0-0.8-0.1-1.2-0.1L117.4,18.2z"/>
		<path class="st1" d="M128.7,20.3l-1.8,4.8c0,0.1-0.1,0.1-0.2,0.2c-0.1,0-0.3,0-0.5,0c-0.2,0-0.4,0-0.6,0c-0.1,0-0.2,0-0.2-0.1
			c0,0,0,0,0-0.1l5.3-12.8l-0.2-0.7c0-0.1,0-0.1,0-0.1c0-0.1,0.1-0.2,0.2-0.2c0.1,0,0.3,0,0.4-0.1c0.2,0,0.3,0,0.5-0.1
			c0.2,0,0.3,0,0.4,0c0.1,0,0.2,0,0.3,0c0.2,0,0.3,0.1,0.3,0.3l5.2,13.3c0,0.1,0,0.1,0,0.1c0,0.1-0.1,0.2-0.2,0.2
			c-0.1,0-0.3,0-0.5,0.1c-0.2,0-0.3,0-0.5,0c-0.2,0-0.3,0-0.5,0c-0.1,0-0.2,0-0.3,0c-0.1,0-0.2-0.1-0.3-0.2l-1.9-4.9L128.7,20.3z
			 M129.1,19.3h4.4l-2.2-5.8L129.1,19.3z"/>
		<path class="st2" d="M72.4,41.1c0.6,0.3,1.5,0.6,2.4,0.6c1.2,0,1.8-0.5,1.8-1.2c0-0.7-0.5-1.1-1.8-1.5c-1.6-0.5-2.7-1.3-2.7-2.6
			c0-1.5,1.4-2.6,3.5-2.6c1.1,0,1.9,0.2,2.4,0.5l-0.4,1.3c-0.4-0.2-1.1-0.4-2-0.4c-1.2,0-1.7,0.6-1.7,1.1c0,0.7,0.6,1,1.9,1.5
			c1.7,0.6,2.6,1.4,2.6,2.7c0,1.4-1.2,2.7-3.8,2.7c-1.1,0-2.1-0.3-2.7-0.6L72.4,41.1z"/>
		<path class="st2" d="M88.9,38.3c0,3-2,4.7-4.8,4.7c-2.8,0-4.6-1.9-4.6-4.6c0-2.8,1.9-4.7,4.7-4.7C87.2,33.8,88.9,35.8,88.9,38.3z
			 M81.5,38.5c0,1.8,1,3.3,2.8,3.3c1.8,0,2.8-1.5,2.8-3.3c0-1.7-0.9-3.3-2.8-3.3C82.4,35.1,81.5,36.6,81.5,38.5z"/>
		<path class="st2" d="M90.5,33.9h1.8v7.6h4.1v1.4h-5.9V33.9z"/>
		<path class="st2" d="M99.1,33.9v5.2c0,1.8,0.8,2.6,2,2.6c1.3,0,2.1-0.8,2.1-2.6v-5.2h1.8v5.1c0,2.8-1.6,4-4,4
			c-2.3,0-3.8-1.2-3.8-4v-5.1H99.1z"/>
		<path class="st2" d="M109.1,35.3h-2.8v-1.4h7.5v1.4h-2.9v7.6h-1.8V35.3z"/>
		<path class="st2" d="M116.8,33.9v9h-1.8v-9H116.8z"/>
		<path class="st2" d="M127.7,38.3c0,3-2,4.7-4.8,4.7c-2.8,0-4.6-1.9-4.6-4.6c0-2.8,1.9-4.7,4.7-4.7C126,33.8,127.7,35.8,127.7,38.3
			z M120.2,38.5c0,1.8,1,3.3,2.8,3.3c1.8,0,2.8-1.5,2.8-3.3c0-1.7-0.9-3.3-2.8-3.3C121.2,35.1,120.2,36.6,120.2,38.5z"/>
		<path class="st2" d="M129.3,42.9v-9h2.1l2.6,3.9c0.7,1,1.2,2,1.7,3h0c-0.1-1.2-0.2-2.4-0.2-3.7v-3.1h1.7v9h-1.9l-2.6-3.9
			c-0.6-1-1.3-2.1-1.8-3.1l0,0c0.1,1.2,0.1,2.3,0.1,3.8v3.2H129.3z"/>
	</g>
	<path class="st0" d="M78.2,0.6c0,0,0.8,2.5,0.4,3.4c-0.4,1-1.8,2.4-4.7,2.6c0,0-1.3-3.5,0-4.7C75.1,0.8,78.2,0.6,78.2,0.6z"/>
</g>
</svg>
